<?xml version="1.0" encoding="UTF-8"?>
<svg width="40px" height="48px" viewBox="0 0 40 48" version="1.1" xmlns="http://www.w3.org/2000/svg">
    <g stroke="none" stroke-width="1" fill="none" fill-rule="evenodd">
        <g id="home-marker">
            <path d="M20,0 C31.0457,0 40,8.9543 40,20 C40,25.8587 37.7437,31.1529 33.9878,34.9346 L20,48 L6.0122,34.9346 C2.2563,31.1529 0,25.8587 0,20 C0,8.9543 8.9543,0 20,0 Z" fill="#00A99D"/>
            <path d="M20,4 C28.8366,4 36,11.1634 36,20 C36,28.8366 28.8366,36 20,36 C11.1634,36 4,28.8366 4,20 C4,11.1634 11.1634,4 20,4 Z" fill="#FFFFFF"/>
            <path d="M28,14 L28,26 L12,26 L12,14 L28,14 Z M26,16 L14,16 L14,24 L26,24 L26,16 Z" fill="#00A99D" fill-rule="nonzero"/>
            <polygon fill="#00A99D" points="20 8 30 16 28 18 20 12 12 18 10 16"/>
            <rect fill="#00A99D" x="18" y="20" width="4" height="6"></rect>
        </g>
    </g>
</svg>
